<?xml version="1.0" standalone="no"?>
<!DOCTYPE svg PUBLIC "-//W3C//DTD SVG 20010904//EN"
 "http://www.w3.org/TR/2001/REC-SVG-20010904/DTD/svg10.dtd">
<svg version="1.0" xmlns="http://www.w3.org/2000/svg"
 width="600.000000pt" height="600.000000pt" viewBox="0 0 600.000000 600.000000"
 preserveAspectRatio="xMidYMid meet">

<g transform="translate(0.000000,600.000000) scale(0.100000,-0.100000)"
fill="#000000" stroke="none">
<path d="M2691 5985 c-18 -8 -42 -15 -52 -15 -11 0 -19 -7 -19 -15 0 -8 -9
-15 -20 -15 -11 0 -20 -4 -20 -10 0 -5 -7 -10 -15 -10 -8 0 -15 -4 -15 -10 0
-5 -11 -12 -25 -16 -14 -3 -25 -10 -25 -15 0 -5 -9 -9 -20 -9 -11 0 -20 -4
-20 -10 0 -5 -12 -10 -27 -10 -22 0 -25 -2 -13 -10 12 -8 9 -10 -12 -10 -16 0
-28 -4 -28 -9 0 -5 -9 -13 -20 -16 -11 -4 -18 -11 -15 -16 4 -5 -5 -9 -18 -9
-14 0 -27 -6 -30 -14 -3 -8 -19 -17 -36 -21 -17 -4 -31 -13 -31 -21 0 -8 -10
-14 -25 -14 -14 0 -25 -4 -25 -10 0 -5 -9 -10 -20 -10 -11 0 -23 -7 -26 -15
-4 -8 -12 -15 -20 -15 -8 0 -14 -4 -14 -10 0 -5 -9 -10 -20 -10 -11 0 -20 -7
-20 -15 0 -8 -9 -15 -20 -15 -24 0 -70 -21 -70 -32 0 -4 -10 -8 -21 -8 -12 0
-32 -11 -45 -25 -13 -14 -31 -25 -40 -25 -10 0 -14 -3 -11 -7 9 -8 -48 -33
-75 -33 -10 0 -17 -4 -13 -9 3 -5 -4 -12 -15 -16 -11 -3 -20 -11 -20 -16 0 -5
-9 -9 -20 -9 -11 0 -20 -4 -20 -10 0 -5 -11 -12 -25 -16 -14 -3 -25 -10 -25
-15 0 -5 -9 -9 -20 -9 -11 0 -20 -4 -20 -10 0 -5 -7 -10 -15 -10 -8 0 -15 -4
-15 -10 0 -5 -11 -10 -25 -10 -16 0 -25 -6 -25 -15 0 -8 -9 -15 -20 -15 -11 0
-20 -4 -20 -10 0 -5 -9 -10 -21 -10 -11 0 -17 -4 -14 -10 3 -5 -6 -12 -20 -16
-13 -3 -22 -10 -19 -15 3 -5 -6 -9 -20 -9 -14 0 -26 -4 -26 -10 0 -5 -9 -10
-20 -10 -11 0 -20 -4 -20 -10 0 -5 -7 -10 -15 -10 -8 0 -15 -5 -15 -11 0 -5
-4 -7 -10 -4 -5 3 -10 1 -10 -4 0 -6 -7 -11 -15 -11 -8 0 -15 -4 -15 -10 0 -5
-9 -10 -20 -10 -11 0 -20 -7 -20 -15 0 -8 -9 -15 -20 -15 -27 0 -70 -21 -64
-31 3 -5 -4 -9 -15 -9 -12 0 -21 -4 -21 -10 0 -5 -9 -10 -20 -10 -11 0 -23 -7
-26 -15 -4 -8 -13 -15 -20 -15 -8 0 -24 -9 -36 -20 -12 -11 -32 -20 -45 -20
-14 0 -22 -4 -19 -9 3 -5 -5 -12 -19 -15 -14 -4 -25 -11 -25 -16 0 -6 -9 -10
-20 -10 -11 0 -20 -4 -20 -9 0 -5 -12 -12 -27 -16 -21 -5 -24 -8 -12 -16 10
-6 7 -9 -13 -9 -16 0 -28 -4 -28 -8 0 -11 -46 -32 -70 -32 -11 0 -20 -7 -20
-15 0 -8 -7 -15 -15 -15 -8 0 -15 -4 -15 -10 0 -5 -9 -10 -20 -10 -11 0 -20
-4 -20 -10 0 -5 -11 -12 -25 -16 -14 -3 -22 -10 -19 -15 3 -5 -5 -9 -19 -9
-33 0 -81 -49 -93 -94 -3 -14 -9 -26 -13 -26 -4 0 -15 -18 -25 -40 -10 -22
-21 -40 -26 -40 -4 0 -11 -18 -15 -40 -4 -22 -10 -40 -14 -40 -29 0 -31 -80
-31 -1282 0 -1195 2 -1278 31 -1278 5 0 9 -13 9 -29 0 -16 6 -36 13 -43 7 -7
29 -42 48 -78 49 -93 81 -130 110 -130 9 0 19 -7 23 -15 3 -8 15 -15 26 -15
12 0 18 -4 15 -10 -3 -5 1 -10 9 -10 9 0 16 -4 16 -10 0 -5 11 -12 25 -16 14
-3 25 -10 25 -15 0 -5 11 -9 25 -9 14 0 25 -4 25 -9 0 -5 15 -15 33 -22 17 -7
38 -19 45 -26 7 -7 20 -13 28 -13 8 0 14 -4 14 -10 0 -5 9 -10 20 -10 11 0 20
-7 20 -15 0 -8 9 -15 21 -15 11 0 17 -4 14 -10 -3 -5 3 -10 14 -10 12 0 21 -4
21 -10 0 -5 9 -10 20 -10 11 0 20 -4 20 -10 0 -5 9 -10 20 -10 11 0 23 -7 26
-15 4 -8 17 -15 31 -15 13 0 21 -4 18 -10 -3 -5 3 -10 13 -10 11 0 22 -6 25
-13 3 -7 23 -19 46 -27 23 -7 41 -17 41 -22 0 -4 9 -8 20 -8 11 0 19 -6 17
-12 -1 -7 4 -12 11 -10 7 1 15 -5 18 -13 4 -8 15 -15 26 -15 11 0 26 -6 33
-13 35 -30 45 -37 58 -37 7 0 23 -9 35 -20 12 -11 30 -20 41 -20 10 0 21 -7
25 -15 3 -8 12 -15 21 -15 8 0 15 -4 15 -10 0 -5 12 -10 28 -10 20 0 23 -3 12
-10 -11 -7 -3 -12 33 -22 26 -6 47 -18 47 -25 0 -7 11 -13 25 -13 14 0 25 -4
25 -10 0 -5 6 -10 14 -10 8 0 16 -7 20 -15 3 -8 12 -15 21 -15 8 0 15 -4 15
-10 0 -5 9 -10 19 -10 11 0 23 -5 26 -10 3 -6 13 -10 22 -10 9 0 26 -11 39
-25 13 -14 30 -25 39 -25 8 0 15 -4 15 -10 0 -5 11 -10 25 -10 16 0 25 -6 25
-15 0 -8 9 -15 20 -15 11 0 20 -3 20 -7 0 -9 48 -33 66 -33 6 0 14 -7 18 -15
3 -8 12 -15 21 -15 8 0 15 -4 15 -10 0 -5 11 -10 25 -10 14 0 25 -4 25 -9 0
-5 9 -13 20 -16 11 -4 18 -10 15 -15 -2 -4 8 -10 24 -13 16 -3 36 -13 44 -22
9 -8 24 -15 35 -15 11 0 22 -7 26 -15 3 -8 13 -15 21 -15 9 0 13 -5 10 -10 -3
-6 3 -10 14 -10 12 0 21 -4 21 -9 0 -5 20 -15 45 -22 25 -7 45 -19 45 -26 0
-7 7 -13 15 -13 8 0 15 -4 15 -10 0 -5 11 -10 24 -10 13 0 26 -7 30 -15 3 -8
12 -15 21 -15 8 0 15 -4 15 -10 0 -5 9 -10 19 -10 10 0 21 -6 24 -14 3 -8 20
-17 37 -21 17 -4 34 -13 37 -21 3 -8 14 -14 24 -14 10 0 19 -4 19 -10 0 -5 7
-10 15 -10 8 0 25 -11 39 -25 14 -14 34 -25 46 -25 11 0 20 -4 20 -10 0 -5 11
-10 25 -10 14 0 25 -4 25 -9 0 -5 9 -11 21 -14 12 -3 18 -10 14 -16 -4 -7 14
-11 55 -11 37 0 59 4 55 10 -3 5 6 12 20 16 13 3 22 10 19 15 -3 5 3 9 13 9
23 0 73 22 73 33 0 4 7 7 15 7 8 0 15 4 15 10 0 5 11 12 25 16 14 3 25 10 25
15 0 5 11 9 25 9 14 0 25 6 25 13 0 7 20 18 45 25 25 7 45 16 45 22 0 5 7 10
15 10 8 0 15 5 15 10 0 6 7 10 15 10 9 0 18 7 21 15 4 8 15 15 25 15 10 0 19
5 19 10 0 6 7 10 15 10 9 0 18 6 21 14 3 8 21 17 40 21 19 3 38 13 41 21 3 7
14 14 25 14 20 0 48 22 48 37 0 5 10 10 22 10 13 1 24 7 26 13 2 5 15 10 28
10 13 0 24 5 24 10 0 6 9 10 20 10 11 0 20 7 20 15 0 8 9 15 21 15 11 0 17 5
14 10 -3 6 5 10 18 10 14 0 27 7 31 15 3 8 12 15 21 15 8 0 15 5 15 10 0 6 9
10 19 10 11 0 23 5 26 10 3 6 16 10 28 10 18 0 19 2 7 10 -12 8 -11 10 8 10
12 0 22 4 22 10 0 5 11 12 25 16 14 3 25 10 25 15 0 5 11 9 25 9 16 0 25 6 25
15 0 8 7 15 16 15 8 0 12 5 9 10 -4 6 5 10 19 10 14 0 26 5 26 10 0 6 11 10
25 10 14 0 25 5 25 10 0 6 9 10 20 10 11 0 20 7 20 15 0 8 9 15 21 15 11 0 17
5 14 10 -3 6 5 10 18 10 14 0 27 6 30 14 3 8 22 19 41 26 20 6 36 16 36 21 0
5 12 9 28 9 21 0 24 2 12 10 -12 8 -11 10 8 10 13 0 22 6 22 15 0 9 9 15 25
15 14 0 25 5 25 10 0 6 9 10 19 10 11 0 23 5 26 10 3 6 15 10 26 10 11 0 19 7
19 16 0 8 5 12 10 9 6 -3 13 1 16 9 3 9 15 16 26 16 11 0 26 6 33 13 36 31 46
37 65 37 11 0 20 7 20 16 0 8 4 13 9 9 5 -3 12 -1 16 5 3 5 15 10 26 10 11 0
18 4 15 9 -4 5 7 12 24 16 17 4 28 11 24 16 -3 5 7 9 23 9 22 0 25 2 13 10
-13 8 -12 10 3 10 10 0 20 7 23 15 4 8 17 15 30 15 13 0 24 5 24 10 0 6 11 10
25 10 14 0 25 5 25 10 0 6 7 10 15 10 9 0 18 7 21 15 4 8 12 15 20 15 8 0 14
5 14 10 0 6 11 10 25 10 14 0 25 5 25 10 0 6 18 17 40 26 22 9 40 20 40 25 0
5 9 9 20 9 11 0 20 5 20 10 0 6 7 10 15 10 9 0 18 7 21 15 4 8 17 15 31 15 13
0 21 4 18 10 -3 6 1 10 9 10 9 0 16 6 16 13 0 8 4 7 10 -3 8 -13 10 -13 10 2
0 9 9 18 22 20 12 2 28 14 34 27 7 13 16 26 21 30 5 3 15 22 23 41 8 19 25 50
37 69 13 19 28 51 35 72 6 22 15 39 20 39 4 0 8 9 8 19 0 11 4 22 8 25 9 5 5
2377 -4 2464 -3 28 -9 52 -13 52 -4 0 -13 17 -19 38 -6 21 -20 47 -29 57 -10
11 -27 40 -38 65 -11 25 -25 49 -32 53 -7 4 -13 14 -13 20 0 17 -36 47 -56 47
-9 0 -27 11 -40 25 -13 14 -32 25 -42 25 -11 0 -22 7 -26 15 -3 8 -13 15 -21
15 -9 0 -13 5 -10 10 3 6 -4 10 -18 10 -13 0 -27 3 -31 8 -4 4 -13 7 -19 7 -7
1 -11 6 -9 13 1 7 -7 12 -18 12 -11 0 -20 4 -20 9 0 5 -11 12 -25 15 -14 4
-25 11 -25 16 0 6 -9 10 -20 10 -11 0 -20 5 -20 10 0 6 -7 10 -15 10 -8 0 -15
7 -15 15 0 9 -9 15 -25 15 -14 0 -25 4 -25 8 0 4 -10 9 -22 9 -13 1 -24 7 -26
13 -2 5 -12 10 -23 10 -10 0 -19 7 -19 15 0 8 -9 15 -21 15 -11 0 -17 5 -14
10 3 6 -5 10 -18 10 -14 0 -27 7 -30 14 -3 8 -22 18 -41 21 -19 4 -37 13 -40
21 -3 8 -12 14 -21 14 -8 0 -15 5 -15 10 0 6 -7 10 -15 10 -8 0 -15 7 -15 15
0 9 -9 15 -25 15 -14 0 -25 5 -25 10 0 6 -11 10 -25 10 -14 0 -25 5 -25 10 0
6 -7 10 -15 10 -8 0 -15 5 -15 10 0 6 -9 10 -20 10 -11 0 -20 7 -20 15 0 9 -9
15 -21 15 -11 0 -27 6 -34 13 -35 31 -45 37 -60 37 -9 0 -13 5 -10 10 3 6 -3
10 -14 10 -11 0 -23 5 -26 10 -3 6 -13 10 -21 10 -9 0 -22 6 -29 13 -36 32
-46 37 -67 37 -19 0 -20 2 -8 10 12 8 11 10 -7 10 -14 0 -23 6 -23 15 0 8 -8
15 -17 15 -24 0 -83 23 -83 32 0 4 -9 8 -21 8 -12 0 -17 4 -14 11 4 6 -2 13
-14 16 -12 3 -21 9 -21 14 0 5 -11 9 -24 9 -13 0 -26 6 -29 14 -3 8 -19 17
-36 21 -16 3 -35 13 -42 21 -6 8 -18 14 -26 14 -8 0 -11 5 -8 10 4 6 -5 10
-19 10 -16 0 -26 6 -26 15 0 8 -9 15 -20 15 -11 0 -20 5 -20 10 0 6 -5 10 -11
10 -6 0 -22 9 -36 20 -14 11 -36 20 -49 20 -15 0 -24 6 -24 15 0 9 -9 15 -21
15 -11 0 -27 6 -34 13 -33 29 -45 37 -55 37 -5 0 -10 5 -10 10 0 6 -11 10 -25
10 -14 0 -25 5 -25 10 0 6 -9 10 -20 10 -11 0 -20 4 -20 10 0 5 -11 12 -25 16
-14 3 -25 10 -25 15 0 5 -7 9 -15 9 -8 0 -15 5 -15 10 0 6 -7 10 -15 10 -7 0
-18 6 -22 13 -4 6 -31 20 -59 30 -45 15 -92 17 -365 17 -253 -1 -321 -4 -348
-15z m579 -1494 c76 -15 242 -72 260 -90 8 -7 30 -20 49 -28 50 -21 154 -102
234 -181 139 -137 238 -326 282 -540 17 -82 19 -250 5 -358 -17 -134 -108
-358 -190 -468 -138 -188 -356 -338 -580 -401 -183 -52 -356 -55 -534 -10
-128 32 -191 59 -192 81 -3 37 -5 39 -18 21 -14 -18 -16 -17 -63 6 -173 88
-380 321 -459 516 -47 116 -84 292 -84 399 0 312 130 607 361 815 143 130 392
238 599 259 45 5 274 -10 330 -21z m-1080 -2462 c13 -24 -10 -69 -36 -69 -25
0 -54 20 -54 37 0 46 70 71 90 32z m2820 -18 c14 -27 13 -29 -19 -36 -66 -14
-152 -119 -166 -200 -7 -48 10 -133 32 -157 20 -22 86 -24 107 -3 25 25 37 84
26 127 -13 46 -21 51 -77 50 -32 -1 -46 3 -50 15 -10 24 25 43 80 43 42 0 54
-5 82 -33 41 -41 52 -91 35 -153 -36 -127 -192 -162 -274 -61 -27 34 -31 48
-34 112 -4 62 0 82 21 129 30 66 95 133 157 163 56 27 67 28 80 4z m-3742 -7
c87 -36 128 -116 120 -233 -12 -165 -106 -239 -285 -225 l-83 7 0 227 c0 125
3 230 7 233 14 14 203 7 241 -9z m1937 -31 c39 -113 85 -266 85 -284 0 -31 17
-13 23 24 3 18 24 94 48 170 l43 137 47 0 47 0 12 -102 c6 -57 18 -155 26
-218 19 -157 20 -150 -21 -150 -21 0 -35 5 -36 13 0 6 -9 95 -18 197 -12 125
-20 175 -25 155 -4 -16 -32 -108 -62 -203 -50 -156 -58 -173 -76 -170 -18 3
-30 31 -79 178 -32 96 -61 189 -65 205 -9 43 -11 31 -25 -182 l-12 -193 -38 0
c-26 0 -37 4 -34 13 2 6 11 93 20 192 8 99 18 199 21 223 l6 42 48 0 48 0 17
-47z m957 -29 c130 -22 123 -200 -12 -300 -22 -16 -40 -32 -40 -35 0 -3 37 -6
83 -5 l82 1 3 -28 3 -28 -148 3 c-175 4 -186 12 -98 73 135 92 194 219 119
254 -36 16 -65 14 -102 -9 -27 -16 -37 -18 -48 -9 -23 19 -16 37 18 55 61 32
86 37 140 28z m476 -36 l-3 -33 -86 -3 c-96 -3 -99 -5 -99 -79 0 -33 0 -33 53
-34 75 -1 99 -11 124 -48 17 -25 23 -49 23 -86 0 -89 -61 -153 -166 -175 -75
-16 -99 -11 -99 20 0 23 5 26 50 30 58 7 107 30 129 62 18 25 21 80 6 108 -15
28 -70 42 -131 34 l-52 -7 6 112 c4 62 9 116 12 122 4 5 58 9 121 9 l115 0 -3
-32z m-2959 -24 c31 -22 51 -73 51 -129 l0 -45 -104 0 c-58 0 -107 -3 -109 -7
-2 -5 0 -23 5 -40 12 -47 56 -67 129 -59 45 4 58 2 63 -9 9 -25 -38 -47 -101
-48 -110 -3 -165 57 -165 177 0 71 16 111 62 150 26 21 42 26 89 26 36 0 65
-6 80 -16z m320 7 c8 -5 11 -16 6 -30 -6 -19 -11 -20 -58 -15 -102 11 -117
-46 -24 -90 72 -34 102 -68 102 -115 0 -70 -59 -107 -151 -95 -65 8 -86 21
-78 51 5 18 10 20 31 12 38 -14 109 -11 123 6 21 25 6 49 -49 77 -68 35 -98
63 -106 99 -8 36 12 80 45 96 28 14 138 17 159 4z m189 -168 l2 -173 -40 0
-40 0 0 176 0 175 38 -3 37 -3 3 -172z m422 150 c0 -19 -5 -23 -29 -23 -28 0
-29 -1 -27 -52 1 -39 -4 -60 -19 -80 -25 -34 -36 -39 -104 -47 -59 -7 -86 -30
-63 -53 11 -11 28 -14 125 -17 80 -2 125 -93 77 -154 -46 -59 -197 -76 -259
-29 -36 26 -42 94 -11 127 14 15 18 25 11 30 -16 9 -13 67 4 89 13 17 12 22
-11 49 -23 27 -25 38 -21 81 3 40 11 55 35 77 31 28 33 28 162 27 129 -1 130
-1 130 -25z m120 12 c0 -18 8 -18 40 0 14 8 50 14 81 15 89 0 93 -9 97 -196
l3 -154 -35 0 -36 0 0 133 c0 72 -4 138 -9 146 -11 18 -59 18 -100 1 l-31 -12
0 -134 0 -134 -35 0 -35 0 0 175 0 175 30 0 c20 0 30 -5 30 -15z m1125 -7 c34
-27 55 -75 55 -128 l0 -40 -110 0 c-69 0 -110 -4 -110 -10 0 -26 30 -79 51
-90 15 -8 44 -10 86 -6 58 6 63 5 63 -13 0 -25 -21 -37 -77 -44 -121 -15 -193
54 -193 184 1 60 32 124 72 149 46 28 126 27 163 -2z m-1455 -683 c0 -33 2
-35 34 -35 52 0 66 -21 66 -96 0 -81 -16 -84 -22 -3 -5 63 -17 81 -53 77 -17
-3 -20 -12 -23 -70 -2 -52 -6 -68 -17 -68 -12 0 -15 21 -15 115 0 96 3 115 15
115 10 0 15 -11 15 -35z m1008 -3 c3 -29 6 -32 38 -32 46 0 74 -29 74 -78 0
-52 -29 -82 -78 -82 -21 0 -43 5 -50 12 -17 17 -17 221 1 216 6 -3 13 -19 15
-36z m-312 -10 c-4 -3 -12 0 -19 7 -9 9 -9 14 3 21 11 7 16 5 18 -6 2 -9 1
-18 -2 -22z m-1056 18 c0 -5 -25 -10 -55 -10 l-55 0 0 -35 c0 -35 0 -35 45
-35 33 0 45 -4 45 -15 0 -11 -12 -15 -45 -15 l-45 0 0 -45 c0 -33 -4 -45 -15
-45 -12 0 -15 18 -15 105 l0 105 70 0 c40 0 70 -4 70 -10z m538 -2 c-6 -18
-28 -21 -28 -4 0 9 7 16 16 16 9 0 14 -5 12 -12z m1372 -68 c0 -47 -4 -80 -10
-80 -6 0 -10 33 -10 80 0 47 4 80 10 80 6 0 10 -33 10 -80z m120 -1 c0 -107
-21 -104 -27 4 -4 65 -2 77 11 77 13 0 16 -14 16 -81z m118 4 c-2 -50 -7 -78
-15 -81 -10 -3 -13 17 -13 77 0 66 3 81 15 81 13 0 15 -13 13 -77z m-2018 8
c14 -27 13 -114 -2 -129 -7 -7 -30 -12 -53 -12 -48 0 -65 13 -65 52 0 33 29
52 72 46 25 -4 29 -2 26 16 -3 18 -10 21 -45 20 -24 0 -43 2 -43 6 0 15 15 20
56 20 33 0 46 -5 54 -19z m150 -1 c0 -17 -3 -18 -19 -9 -20 13 -51 6 -51 -10
0 -6 18 -20 40 -31 67 -34 49 -94 -26 -88 -50 4 -57 26 -7 24 54 -2 56 25 3
48 -29 13 -40 23 -40 40 0 32 19 46 62 46 31 0 38 -3 38 -20z m260 -60 c0 -64
-3 -80 -15 -80 -12 0 -15 16 -15 80 0 64 3 80 15 80 12 0 15 -16 15 -80z m164
58 c9 -12 16 -38 16 -58 0 -53 -23 -80 -70 -80 -47 0 -70 27 -70 80 0 53 23
80 70 80 29 0 43 -6 54 -22z m177 6 c17 -20 18 -136 2 -141 -10 -4 -13 12 -13
55 0 65 -13 86 -52 80 -21 -3 -23 -9 -26 -70 -2 -52 -6 -68 -17 -68 -20 0 -22
146 -2 153 28 12 95 6 108 -9z m179 -64 c0 -64 -3 -80 -15 -80 -12 0 -15 16
-15 80 0 64 3 80 15 80 12 0 15 -16 15 -80z m140 60 c0 -17 -3 -18 -19 -9 -20
13 -51 6 -51 -10 0 -6 18 -20 40 -31 67 -34 49 -94 -26 -88 -50 4 -57 26 -7
24 54 -2 56 25 3 48 -29 13 -40 23 -40 40 0 32 19 46 62 46 31 0 38 -3 38 -20z
m440 -6 c13 -33 13 -90 0 -115 -8 -15 -22 -19 -61 -19 -44 0 -51 3 -59 25 -10
26 -4 55 14 67 6 4 28 8 49 8 20 0 37 4 37 9 0 19 -31 33 -60 27 -28 -5 -38 2
-23 17 3 4 26 7 50 7 37 0 45 -4 53 -26z m163 9 c8 -10 17 -29 19 -43 3 -24 0
-25 -53 -28 -51 -3 -56 -5 -52 -23 6 -23 42 -34 79 -25 19 5 25 3 22 -6 -3 -7
-24 -14 -50 -16 -39 -3 -49 1 -62 20 -20 29 -21 87 0 116 19 27 74 30 97 5z
m109 -128 c0 -5 -5 -11 -11 -13 -6 -2 -11 4 -11 13 0 9 5 15 11 13 6 -2 11 -8
11 -13z m118 0 c0 -8 -7 -15 -15 -15 -16 0 -20 12 -8 23 11 12 23 8 23 -8z
m120 0 c0 -8 -7 -15 -15 -15 -8 0 -15 7 -15 15 0 8 7 15 15 15 8 0 15 -7 15
-15z"/>
<path d="M2890 4425 c7 -8 16 -15 21 -15 5 0 9 7 9 15 0 9 -9 15 -21 15 -18 0
-19 -2 -9 -15z"/>
<path d="M2865 4400 c-4 -6 3 -10 14 -10 25 0 27 6 6 13 -8 4 -17 2 -20 -3z"/>
<path d="M3435 4381 c-3 -5 -1 -12 5 -16 5 -3 10 1 10 9 0 18 -6 21 -15 7z"/>
<path d="M3050 4339 c0 -5 5 -7 10 -4 6 3 10 8 10 11 0 2 -4 4 -10 4 -5 0 -10
-5 -10 -11z"/>
<path d="M2680 4261 c0 -6 5 -13 10 -16 6 -3 10 1 10 9 0 9 -4 16 -10 16 -5 0
-10 -4 -10 -9z"/>
<path d="M3640 4240 c0 -5 5 -10 10 -10 6 0 10 5 10 10 0 6 -4 10 -10 10 -5 0
-10 -4 -10 -10z"/>
<path d="M3675 4221 c-6 -11 9 -23 19 -14 9 9 7 23 -3 23 -6 0 -12 -4 -16 -9z"/>
<path d="M3215 4160 c-8 -12 20 -24 35 -15 5 3 10 10 10 16 0 12 -37 12 -45
-1z"/>
<path d="M2486 4099 c-42 -37 -55 -83 -33 -125 23 -45 52 -65 97 -69 40 -3 43
-5 109 -101 157 -231 174 -254 192 -254 10 0 23 9 30 21 9 17 6 27 -16 57 -15
21 -43 62 -62 91 -20 30 -50 73 -67 96 -17 22 -40 58 -51 80 -11 22 -24 43
-28 46 -4 3 -3 19 3 35 20 52 -5 115 -57 143 -38 20 -80 13 -117 -20z m98 -55
c9 -8 16 -22 16 -29 0 -15 -27 -45 -40 -45 -4 0 -18 8 -31 19 -22 18 -22 19
-6 45 20 30 39 33 61 10z"/>
<path d="M3483 4110 c-17 -10 -37 -28 -42 -39 -14 -25 -14 -86 -1 -111 7 -13
6 -22 -3 -32 -22 -23 -57 -85 -57 -101 0 -9 9 -21 20 -27 22 -12 25 -9 80 68
23 32 36 42 50 37 22 -7 79 15 98 38 20 24 26 83 12 117 -14 34 -66 70 -101
70 -13 0 -38 -9 -56 -20z m78 -60 c28 -16 25 -58 -6 -72 -19 -8 -28 -8 -40 2
-18 15 -20 51 -3 68 15 15 24 15 49 2z"/>
<path d="M3806 4053 c-4 -9 -2 -21 4 -27 5 -5 10 -20 10 -33 0 -14 6 -23 15
-23 11 0 15 12 15 50 0 42 -3 50 -19 50 -10 0 -22 -8 -25 -17z"/>
<path d="M2215 3980 c-8 -13 4 -32 16 -25 12 8 12 35 0 35 -6 0 -13 -4 -16
-10z"/>
<path d="M2455 3921 c-3 -5 -1 -12 5 -16 5 -3 10 1 10 9 0 18 -6 21 -15 7z"/>
<path d="M3956 3903 c-11 -11 -6 -23 9 -23 8 0 15 4 15 9 0 13 -16 22 -24 14z"/>
<path d="M2897 3859 c-3 -13 -1 -19 6 -16 15 5 22 37 9 37 -5 0 -12 -9 -15
-21z"/>
<path d="M2970 3833 c-73 -13 -128 -35 -133 -53 -8 -29 17 -43 60 -35 l38 7
-23 -25 c-29 -30 -25 -61 6 -65 16 -3 39 9 70 35 86 72 92 74 155 62 31 -7 57
-15 57 -18 0 -3 -20 -19 -45 -34 -105 -67 -238 -234 -298 -374 -14 -33 -33
-98 -43 -142 -16 -74 -16 -83 -2 -97 30 -30 53 -3 67 76 13 72 13 72 42 66 33
-6 41 13 9 21 -11 3 -20 10 -20 15 0 18 70 153 103 198 62 84 232 230 269 230
8 0 29 -13 48 -29 l35 -30 -25 -18 c-39 -27 -132 -114 -160 -148 -13 -16 -27
-32 -31 -35 -3 -3 -21 -30 -40 -60 -85 -135 -128 -269 -136 -427 -3 -62 -10
-113 -14 -113 -14 0 -123 42 -133 51 -5 5 2 25 17 48 15 22 27 47 27 55 0 21
-27 39 -44 29 -27 -15 -146 -193 -146 -217 0 -44 47 -44 71 0 15 29 16 29 129
-12 61 -22 92 -27 165 -27 50 0 108 5 130 11 28 8 41 8 46 1 5 -8 8 -8 13 0 4
6 4 11 -1 11 -4 1 13 10 40 22 46 20 48 20 67 3 11 -10 20 -24 20 -30 0 -17
33 -25 54 -13 22 12 20 27 -8 69 l-24 35 45 44 c52 52 104 135 128 205 22 64
31 225 16 295 -30 141 -149 292 -281 358 -99 49 -228 71 -320 55z m485 -304
c13 -24 11 -29 -30 -80 -54 -69 -121 -125 -218 -184 -43 -26 -77 -50 -77 -55
0 -23 14 -40 33 -40 28 0 121 53 187 108 56 46 67 57 115 113 32 39 45 28 45
-43 0 -43 -4 -52 -57 -108 -31 -34 -84 -81 -118 -105 -77 -55 -204 -117 -228
-111 -24 6 -43 -40 -25 -61 33 -40 247 62 375 180 24 22 43 36 43 32 0 -4 -14
-37 -32 -72 -74 -151 -203 -242 -380 -267 l-48 -7 0 83 c0 241 121 487 309
630 72 54 71 54 106 -13z"/>
<path d="M2560 3810 c0 -5 5 -10 10 -10 6 0 10 5 10 10 0 6 -4 10 -10 10 -5 0
-10 -4 -10 -10z"/>
<path d="M3335 3811 c-7 -12 12 -24 25 -16 11 7 4 25 -10 25 -5 0 -11 -4 -15
-9z"/>
<path d="M3800 3790 c0 -5 5 -10 10 -10 6 0 10 5 10 10 0 6 -4 10 -10 10 -5 0
-10 -4 -10 -10z"/>
<path d="M3560 3710 c0 -5 5 -10 10 -10 6 0 10 5 10 10 0 6 -4 10 -10 10 -5 0
-10 -4 -10 -10z"/>
<path d="M2290 3670 c0 -5 5 -10 10 -10 6 0 10 5 10 10 0 6 -4 10 -10 10 -5 0
-10 -4 -10 -10z"/>
<path d="M2606 3602 c-108 -157 -123 -359 -42 -529 31 -64 80 -133 94 -133 28
1 34 21 33 109 -3 145 22 256 86 385 33 68 36 99 8 110 -20 7 -42 -18 -71 -78
-43 -92 -75 -200 -81 -273 -3 -40 -9 -73 -13 -73 -16 0 -35 100 -35 185 1 109
19 169 81 261 49 73 52 97 13 102 -22 3 -33 -7 -73 -66z"/>
<path d="M2095 3471 c-3 -5 -1 -12 5 -16 12 -7 30 2 30 16 0 12 -27 12 -35 0z"/>
<path d="M3875 3411 c-3 -5 -1 -12 5 -16 5 -3 10 1 10 9 0 18 -6 21 -15 7z"/>
<path d="M3800 3359 c-13 -24 -7 -49 13 -49 17 0 42 44 33 59 -11 18 -34 13
-46 -10z"/>
<path d="M2392 3109 c2 -6 8 -10 13 -10 5 0 11 4 13 10 2 6 -4 11 -13 11 -9 0
-15 -5 -13 -11z"/>
<path d="M3870 2901 c0 -28 13 -33 40 -14 22 16 23 17 4 24 -32 13 -44 10 -44
-10z"/>
<path d="M3588 2871 c-21 -21 -24 -51 -5 -51 16 0 57 42 57 58 0 18 -32 13
-52 -7z"/>
<path d="M3640 2770 c0 -5 4 -10 9 -10 6 0 13 5 16 10 3 6 -1 10 -9 10 -9 0
-16 -4 -16 -10z"/>
<path d="M3250 2750 c0 -5 5 -10 10 -10 6 0 10 5 10 10 0 6 -4 10 -10 10 -5 0
-10 -4 -10 -10z"/>
<path d="M3260 2690 c0 -5 5 -10 11 -10 5 0 7 5 4 10 -3 6 -8 10 -11 10 -2 0
-4 -4 -4 -10z"/>
<path d="M3150 2650 c0 -13 5 -20 13 -17 6 2 12 10 12 17 0 7 -6 15 -12 18 -8
2 -13 -5 -13 -18z"/>
<path d="M3460 2650 c0 -5 4 -10 9 -10 6 0 13 5 16 10 3 6 -1 10 -9 10 -9 0
-16 -4 -16 -10z"/>
<path d="M3160 2550 c0 -11 4 -20 9 -20 11 0 22 26 14 34 -12 12 -23 5 -23
-14z"/>
<path d="M2830 2470 c0 -5 5 -10 10 -10 6 0 10 5 10 10 0 6 -4 10 -10 10 -5 0
-10 -4 -10 -10z"/>
<path d="M2946 2415 c-3 -8 -1 -15 4 -15 6 0 10 7 10 15 0 8 -2 15 -4 15 -2 0
-6 -7 -10 -15z"/>
<path d="M1094 1957 c-2 -7 -3 -89 -2 -182 l3 -170 60 -3 c111 -5 155 48 155
183 0 98 -17 137 -74 165 -48 23 -134 27 -142 7z"/>
<path d="M1541 1824 c-12 -15 -21 -35 -21 -45 0 -17 8 -19 71 -19 l72 0 -6 37
c-7 42 -20 53 -64 53 -22 0 -38 -8 -52 -26z"/>
<path d="M2366 1834 c-20 -20 -20 -63 0 -92 18 -26 84 -31 103 -8 18 22 21 72
5 95 -19 26 -85 29 -108 5z"/>
<path d="M2357 1543 c-10 -10 -8 -66 3 -83 12 -19 122 -19 145 0 8 7 15 26 15
41 0 22 -6 32 -26 39 -29 11 -127 13 -137 3z"/>
<path d="M3720 1828 c-11 -12 -20 -32 -20 -45 0 -22 4 -23 70 -23 66 0 70 1
70 23 0 62 -76 91 -120 45z"/>
<path d="M3422 1131 c-9 -5 -12 -25 -10 -57 3 -42 6 -49 26 -52 34 -5 52 15
52 59 0 48 -33 72 -68 50z"/>
<path d="M2073 1054 c-7 -20 13 -34 50 -34 22 0 27 4 27 25 0 22 -4 25 -35 25
-23 0 -38 -6 -42 -16z"/>
<path d="M2668 1128 c-46 -35 -19 -118 34 -105 31 8 42 49 25 87 -14 29 -36
36 -59 18z"/>
<path d="M3583 1054 c-8 -22 10 -36 43 -32 21 2 30 9 32 26 3 19 -1 22 -33 22
-23 0 -38 -5 -42 -16z"/>
<path d="M3773 1133 c-7 -2 -13 -11 -13 -19 0 -10 12 -14 40 -14 43 0 52 13
21 30 -21 11 -29 11 -48 3z"/>
</g>
</svg>
